<svg width="503" height="452" viewBox="0 0 503 452" fill="none" xmlns="http://www.w3.org/2000/svg">
<path d="M235.698 176.349L266.6 212.401C266.979 212.844 267.654 212.87 268.066 212.458L298.2 182.324C298.59 181.933 299.224 181.933 299.614 182.324L329.677 212.387C330.114 212.824 330.839 212.764 331.198 212.261L356.849 176.349L477.111 380.272C477.504 380.938 477.023 381.78 476.249 381.78H277.837H26.7285C25.9595 381.78 25.4783 380.948 25.8616 380.281L85.5756 276.431L119.169 307.441C119.538 307.781 120.102 307.795 120.488 307.474L150.778 282.232C151.149 281.923 151.688 281.923 152.059 282.232L182.322 307.451C182.719 307.782 183.303 307.755 183.669 307.39L213.625 277.434L193.558 244.826L235.698 176.349Z" fill="#009EF7"/>
<path d="M214.628 276.431L183.669 307.39C183.303 307.755 182.719 307.782 182.322 307.451L152.059 282.232C151.688 281.923 151.149 281.923 150.778 282.232L120.488 307.474C120.102 307.795 119.538 307.781 119.169 307.441L85.5756 276.431L25.8616 380.281C25.4783 380.948 25.9595 381.78 26.7285 381.78H476.249C477.023 381.78 477.504 380.938 477.111 380.272L356.849 176.349L331.198 212.261C330.839 212.764 330.114 212.824 329.677 212.387L299.614 182.324C299.224 181.933 298.59 181.933 298.2 182.324L268.066 212.458C267.654 212.87 266.979 212.844 266.6 212.401L235.698 176.349L193.558 244.826L277.837 381.78" stroke="black" stroke-width="10"/>
<path d="M266.958 212.82L235.697 176.349L193.558 244.826L238.939 318.57L267.164 213.731C267.25 213.412 267.173 213.071 266.958 212.82Z" fill="#8ECAE6"/>
<path d="M85.5754 276.431L25.8616 380.281C25.4783 380.948 25.9595 381.78 26.7285 381.78H103.203C103.675 381.78 104.082 381.45 104.181 380.989L119.694 308.593C119.768 308.247 119.654 307.888 119.395 307.649L85.5754 276.431Z" fill="#8ECAE6"/>
<path d="M214.628 276.431L183.669 307.39C183.303 307.756 182.719 307.782 182.322 307.451L152.059 282.232C151.688 281.923 151.149 281.923 150.778 282.232L120.488 307.474C120.102 307.795 119.538 307.781 119.169 307.441L85.5756 276.431L25.8616 380.281C25.4783 380.948 25.9595 381.78 26.7285 381.78H476.249C477.023 381.78 477.504 380.938 477.111 380.272L356.849 176.349L331.198 212.261C330.839 212.764 330.114 212.824 329.677 212.387L299.614 182.324C299.224 181.933 298.59 181.933 298.2 182.324L268.118 212.406C267.687 212.836 266.976 212.786 266.611 212.299L235.698 171.082L193.558 244.826L277.837 381.78" stroke="black" stroke-width="10"/>
<path d="M266.613 212.298L235.7 171.081L292.792 72.4683C293.173 71.809 294.123 71.8015 294.515 72.4548L356.851 176.349L331.2 212.26C330.841 212.763 330.116 212.823 329.679 212.386L299.616 182.323C299.226 181.933 298.593 181.933 298.202 182.323L268.12 212.405C267.69 212.836 266.978 212.785 266.613 212.298Z" fill="white"/>
<path d="M193.561 250.093L147.029 172.541C146.637 171.887 145.685 171.895 145.305 172.557L85.5782 276.43L119.172 307.439C119.541 307.78 120.105 307.794 120.49 307.473L150.781 282.231C151.152 281.922 151.69 281.922 152.061 282.231L182.257 307.394C182.682 307.748 183.312 307.69 183.666 307.266L209.363 276.43L193.561 250.093Z" fill="white"/>
<path d="M266.613 212.298L235.7 171.081L292.792 72.4683C293.173 71.809 294.123 71.8015 294.515 72.4548L356.851 176.349L331.2 212.26C330.841 212.763 330.116 212.823 329.679 212.386L299.616 182.323C299.226 181.933 298.593 181.933 298.202 182.323L268.12 212.405C267.69 212.836 266.978 212.785 266.613 212.298Z" stroke="black" stroke-width="10"/>
<path d="M193.561 250.093L147.029 172.541C146.637 171.887 145.685 171.895 145.305 172.557L85.5782 276.43L119.172 307.439C119.541 307.78 120.105 307.794 120.49 307.473L150.781 282.231C151.152 281.922 151.69 281.922 152.061 282.231L182.257 307.394C182.682 307.748 183.312 307.69 183.666 307.266L209.363 276.43L193.561 250.093Z" stroke="black" stroke-width="10"/>
</svg>
